Coordinates
version=1
nRows=14
nColumns=40
inDegrees=yes

Units are S.I. units (second, meters, Newtons, ...)
Angles are in degrees.

endheader
time	pelvis_tilt	pelvis_list	pelvis_rotation	pelvis_tx	pelvis_ty	pelvis_tz	hip_flexion_r	hip_adduction_r	hip_rotation_r	knee_angle_r	knee_angle_r_beta	ankle_angle_r	subtalar_angle_r	mtp_angle_r	hip_flexion_l	hip_adduction_l	hip_rotation_l	knee_angle_l	knee_angle_l_beta	ankle_angle_l	subtalar_angle_l	mtp_angle_l	lumbar_extension	lumbar_bending	lumbar_rotation	arm_flex_r	arm_add_r	arm_rot_r	elbow_flex_r	pro_sup_r	wrist_flex_r	wrist_dev_r	arm_flex_l	arm_add_l	arm_rot_l	elbow_flex_l	pro_sup_l	wrist_flex_l	wrist_dev_l
      1.47000000	      5.19972955	      1.10502943	     -4.01822307	     -0.24029854	      0.90540843	     -1.45133444	     16.49063764	     -3.29692659	     -4.40881038	    -60.50400647	     -1.05599412	     -1.10098993	    -14.05161012	     12.17150725	     -4.18718976	     -5.35971527	      9.80011079	    -12.10873548	     -0.21133730	      7.72420794	     -5.98571662	     -4.55315130	     -9.21281892	      0.15280251	     -1.51513574	      6.80792647	     -8.79122097	     20.09640927	     16.93795337	     89.95437384	      0.00000000	      0.00000000	      7.25018373	      9.53224977	    -18.43452420	     17.97795779	     89.95437384	      0.00000000	      0.00000000
      1.48000000	      4.92473769	      1.20659892	     -3.72700049	     -0.23161248	      0.90473274	     -1.45196458	     17.84130556	     -3.22940725	     -4.52841968	    -59.27923943	     -1.03461791	     -0.61931704	    -13.58468602	     11.84032336	     -4.53147749	     -5.49222566	      9.78941599	    -12.06425462	     -0.21056096	      7.98306221	     -6.02886807	     -4.53796931	     -8.93768577	      0.15052842	     -1.72430809	      6.31126076	     -8.85064592	     20.05752792	     16.84190143	     89.95437384	      0.00000000	      0.00000000	      8.25991015	      9.75467878	    -18.34659997	     18.67954610	     89.95437384	      0.00000000	      0.00000000
      1.49000000	      4.68504405	      1.19324027	     -3.44236322	     -0.22307864	      0.90402799	     -1.45244660	     19.06606143	     -3.03561437	     -4.75825242	    -57.86337299	     -1.00990637	      0.09026042	    -13.25266726	     11.53170984	     -4.98677015	     -5.50751255	      9.65418785	    -11.85377463	     -0.20688740	      8.38701127	     -6.22264386	     -4.56947983	     -8.74034110	      0.25549016	     -1.93303932	      5.88157269	     -8.88102876	     19.99525420	     16.71183270	     89.95437384	      0.00000000	      0.00000000	      9.26005496	      9.98119963	    -18.27828044	     19.42279923	     89.95437384	      0.00000000	      0.00000000
      1.50000000	      5.31219601	      0.58128140	     -2.87662793	     -0.21389744	      0.90474965	     -1.45270948	     18.78818863	     -2.23345854	     -5.38116334	    -55.61544609	     -0.97067265	      0.97343902	    -12.99040963	     11.00335600	     -6.56443756	     -4.80493840	      9.38798864	    -11.50923397	     -0.20087403	      8.63060540	     -7.07449062	     -4.71781659	     -9.56117435	      0.98098861	     -2.33965291	      5.50523494	     -8.91129113	     19.63122498	     16.65991175	     89.95437384	      0.00000000	      0.00000000	     10.21464870	     10.28798587	    -18.23532761	     20.51584895	     89.95437384	      0.00000000	      0.00000000
      1.51000000	      5.24849270	      0.41592715	     -2.51095622	     -0.20521953	      0.90416718	     -1.45304906	     19.52685406	     -1.92680840	     -5.79411639	    -53.62926174	     -0.93600719	      1.51759570	    -12.62465493	     10.61117861	     -7.18018234	     -4.60637432	      9.21918655	    -11.41047464	     -0.19915035	      8.99918840	     -7.46721713	     -4.84592370	     -9.59883197	      1.24341196	     -2.57463348	      5.08739750	     -8.93994448	     19.51860704	     16.57372773	     89.95437384	      0.00000000	      0.00000000	     11.14973226	     10.50903776	    -17.97565906	     21.41645939	     89.95437384	      0.00000000	      0.00000000
      1.52000000	      5.35065513	      0.18019548	     -2.09736984	     -0.19622528	      0.90374613	     -1.45340451	     19.93107452	     -1.62802576	     -6.38169446	    -51.37173927	     -0.89660599	      1.87626326	    -12.19742158	     10.27654530	     -8.01767592	     -4.30521563	      9.12433398	    -11.29679479	     -0.19716626	      9.31419080	     -7.92990259	     -4.97297694	     -9.78917088	      1.58196735	     -2.84190500	      4.66597964	     -8.95651905	     19.43033767	     16.44657181	     89.95437384	      0.00000000	      0.00000000	     12.05111060	     10.68994463	    -17.59795788	     22.31304285	     89.95437384	      0.00000000	      0.00000000
      1.53000000	      4.96658936	      0.43230121	     -1.95149687	     -0.18779169	      0.90233751	     -1.45381323	     21.11351040	     -1.92951937	     -6.87013238	    -49.35195693	     -0.86135414	      2.09499700	    -11.68409546	     10.04821266	     -8.13425081	     -4.58868789	      9.23108732	    -11.40560155	     -0.19906530	      9.51960946	     -7.82016789	     -4.95188293	     -9.48404055	      1.39283352	     -2.82703464	      4.18542899	     -8.98078347	     19.42408210	     16.40123519	     89.95437384	      0.00000000	      0.00000000	     12.99133254	     10.83593525	    -17.38953261	     23.12732448	     89.95437384	      0.00000000	      0.00000000
      1.54000000	      5.57137144	     -0.25680850	     -1.37560217	     -0.17818679	      0.90271828	     -1.45397869	     20.43427594	     -1.18317747	     -7.82358106	    -46.23173816	     -0.80689605	      2.28986648	    -10.96918299	      9.71240867	     -9.71142455	     -3.75053292	      8.97407388	    -11.03658100	     -0.19262468	      9.90335330	     -8.38919942	     -5.15222352	    -10.22036295	      2.22513659	     -3.27661529	      3.88362106	     -8.99077232	     19.43994140	     16.24907733	     89.95437384	      0.00000000	      0.00000000	     13.78884607	     10.97553044	    -16.78253901	     24.06214331	     89.95437384	      0.00000000	      0.00000000
      1.55000000	      5.27655383	     -0.20917553	     -1.13734201	     -0.16942790	      0.90138501	     -1.45421425	     21.19405211	     -1.19505919	     -8.35598700	    -43.68361423	     -0.76242290	      2.38924874	    -10.35352382	      9.51527500	    -10.07008532	     -3.78074301	      8.83617397	    -10.94789797	     -0.19107687	     10.13404029	     -8.64934056	     -5.22777294	     -9.98624251	      2.24630556	     -3.32617083	      3.45928586	     -8.97572640	     19.50426031	     16.06849516	     89.95437384	      0.00000000	      0.00000000	     14.61400829	     11.08138327	    -16.49030569	     24.93758085	     89.95437384	      0.00000000	      0.00000000
      1.56000000	      5.26379523	     -0.42294287	     -0.82716592	     -0.16050178	      0.90051233	     -1.45436682	     21.43562686	     -0.98946790	     -9.22160720	    -40.84228145	     -0.71283229	      2.32176329	     -9.46670065	      9.25186303	    -10.72803035	     -3.48707048	      8.73966674	    -10.90760024	     -0.19037354	     10.44610919	     -8.89569373	     -5.33987917	    -10.09160925	      2.56056486	     -3.46652811	      3.12149103	     -8.96726069	     19.65096985	     15.88427965	     89.95437384	      0.00000000	      0.00000000	     15.37755724	     11.21064865	    -16.23417109	     25.89373809	     89.95437384	      0.00000000	      0.00000000
      1.57000000	      5.01705146	     -0.33277053	     -0.62581610	     -0.15173949	      0.89912012	     -1.45451754	     22.01486858	     -1.09122542	     -9.97265277	    -38.14093249	     -0.66568485	      2.16331370	     -8.67769521	      9.05098751	    -11.08774106	     -3.56142971	      8.72637377	    -10.91509191	     -0.19050429	     10.69287318	     -9.04140562	     -5.42576673	     -9.94269419	      2.52749664	     -3.51248507	      2.73385426	     -8.95426924	     19.75667819	     15.78760616	     89.95437384	      0.00000000	      0.00000000	     16.12509611	     11.32380527	    -16.05937917	     26.78885171	     89.95437384	      0.00000000	      0.00000000
      1.58000000	      5.08767900	     -0.54158001	     -0.34221026	     -0.14270843	      0.89817534	     -1.45461811	     22.08184374	     -0.96129873	    -11.11957120	    -35.28279376	     -0.61580092	      1.54459922	     -7.51879559	      8.71131128	    -11.80307409	     -3.28046747	      8.85388227	    -10.96342464	     -0.19134786	     11.13366942	     -9.18401693	     -5.61185830	    -10.13921785	      2.84335383	     -3.58561872	      2.43799639	     -8.93653073	     19.87391883	     15.54068775	     89.95437384	      0.00000000	      0.00000000	     16.81955100	     11.38176423	    -15.81312667	     27.76093857	     89.95437384	      0.00000000	      0.00000000
      1.59000000	      4.63855007	     -0.28737328	     -0.28113393	     -0.13410224	      0.89630164	     -1.45456050	     22.91542720	     -1.19011187	    -11.79157240	    -32.75394941	     -0.57166426	      0.93364265	     -6.72402927	      8.59361488	    -11.88634182	     -3.57014372	      8.88115687	    -11.02643054	     -0.19244752	     11.30146516	     -9.19270873	     -5.65611332	     -9.80154654	      2.61077700	     -3.52362788	      2.04143096	     -8.89641431	     19.95721557	     15.44961640	     89.95437384	      0.00000000	      0.00000000	     17.45783655	     11.50150387	    -15.67199764	     28.68776888	     89.95437384	      0.00000000	      0.00000000
      1.60000000	      4.77247023	     -0.58950485	      0.09468774	     -0.12496862	      0.89536831	     -1.45464108	     22.73897298	     -1.01714780	    -13.36991998	    -29.81409254	     -0.52035408	     -0.23927822	     -5.33279720	      8.09165649	    -12.61584137	     -3.13371497	      8.85346336	    -11.22715019	     -0.19595074	     11.79338584	     -9.31643474	     -5.88645882	    -10.06314455	      3.02420481	     -3.68246827	      1.78897355	     -8.88565955	     20.17781317	     15.20678963	     89.95437384	      0.00000000	      0.00000000	     18.03501933	     11.52761261	    -15.35671816	     29.73368420	     89.95437384	      0.00000000	      0.00000000
